<svg xmlns="http://www.w3.org/2000/svg" xmlns:xlink="http://www.w3.org/1999/xlink" width="600" zoomAndPan="magnify" viewBox="0 0 450 299.999988" height="400" preserveAspectRatio="xMidYMid meet" version="1.0"><rect x="-45" width="540" fill="#ffffff" y="-29.999999" height="359.999986" fill-opacity="1"/><rect x="-45" width="540" fill="#ffffff" y="-29.999999" height="359.999986" fill-opacity="1"/><rect x="-45" width="540" fill="#ffffff" y="-29.999999" height="359.999986" fill-opacity="1"/><path stroke-linecap="butt" transform="matrix(1.176434, 0, 0, 1.177348, -10.907977, -35.470969)" fill="none" stroke-linejoin="miter" d="M 0.49953 0.49956 L 400.500132 0.49956 L 400.500132 350.498352 L 0.49953 350.498352 Z M 0.49953 0.49956 " stroke="#cbcbcb" stroke-width="1" stroke-opacity="1" stroke-miterlimit="10"/><path fill="#f6f6f6" d="M 104.699219 142.574219 C 171.25 142.574219 181.636719 285.308594 208.535156 285.308594 C 235.4375 285.308594 247.3125 199.988281 285.355469 199.988281 C 337.640625 199.988281 363.796875 354.292969 451.746094 354.292969 C 451.863281 354.292969 451.976562 354.292969 452.089844 354.292969 L 452.089844 -27.589844 L -2.710938 -27.589844 L -2.710938 326.3125 C 12.980469 268.816406 53.289062 142.574219 104.699219 142.574219 Z M 351.683594 26.289062 C 387.441406 26.289062 416.433594 55.300781 416.433594 91.089844 C 416.433594 126.878906 387.441406 155.886719 351.683594 155.886719 C 315.921875 155.886719 286.9375 126.878906 286.9375 91.089844 C 286.9375 55.300781 315.921875 26.289062 351.683594 26.289062 Z M 351.683594 26.289062 " fill-opacity="1" fill-rule="nonzero"/><path fill="#d1d2d2" d="M 452.089844 368.695312 L 452.089844 354.292969 C 451.972656 354.292969 451.859375 354.292969 451.746094 354.292969 C 363.792969 354.292969 337.648438 199.988281 285.351562 199.988281 C 247.3125 199.988281 235.433594 285.308594 208.53125 285.308594 C 181.632812 285.308594 171.246094 142.574219 104.695312 142.574219 C 53.285156 142.574219 12.976562 268.816406 -2.714844 326.3125 L -2.714844 368.695312 Z M 452.089844 368.695312 " fill-opacity="1" fill-rule="nonzero"/><path fill="#d1d2d2" d="M 416.429688 91.085938 C 416.429688 92.144531 416.40625 93.207031 416.355469 94.265625 C 416.300781 95.324219 416.222656 96.382812 416.121094 97.4375 C 416.015625 98.492188 415.886719 99.542969 415.730469 100.59375 C 415.574219 101.644531 415.394531 102.6875 415.1875 103.726562 C 414.980469 104.769531 414.75 105.800781 414.492188 106.832031 C 414.234375 107.859375 413.949219 108.882812 413.644531 109.894531 C 413.335938 110.910156 413.003906 111.917969 412.648438 112.917969 C 412.289062 113.914062 411.910156 114.902344 411.503906 115.882812 C 411.097656 116.863281 410.667969 117.832031 410.214844 118.792969 C 409.761719 119.75 409.285156 120.695312 408.785156 121.632812 C 408.285156 122.566406 407.765625 123.488281 407.21875 124.398438 C 406.675781 125.308594 406.109375 126.203125 405.519531 127.085938 C 404.929688 127.96875 404.320312 128.835938 403.6875 129.6875 C 403.058594 130.539062 402.40625 131.375 401.734375 132.195312 C 401.0625 133.015625 400.371094 133.816406 399.65625 134.601562 C 398.945312 135.386719 398.214844 136.15625 397.46875 136.90625 C 396.71875 137.65625 395.949219 138.386719 395.164062 139.097656 C 394.378906 139.8125 393.578125 140.503906 392.757812 141.175781 C 391.9375 141.847656 391.105469 142.5 390.253906 143.132812 C 389.402344 143.765625 388.535156 144.375 387.65625 144.964844 C 386.773438 145.554688 385.878906 146.121094 384.96875 146.667969 C 384.0625 147.210938 383.140625 147.734375 382.203125 148.234375 C 381.269531 148.734375 380.324219 149.210938 379.367188 149.664062 C 378.40625 150.117188 377.441406 150.546875 376.460938 150.953125 C 375.480469 151.359375 374.492188 151.742188 373.496094 152.097656 C 372.496094 152.453125 371.492188 152.789062 370.476562 153.09375 C 369.464844 153.402344 368.441406 153.6875 367.414062 153.945312 C 366.386719 154.203125 365.351562 154.433594 364.3125 154.640625 C 363.273438 154.847656 362.230469 155.027344 361.183594 155.183594 C 360.132812 155.339844 359.082031 155.46875 358.027344 155.574219 C 356.972656 155.675781 355.917969 155.753906 354.859375 155.808594 C 353.800781 155.859375 352.742188 155.886719 351.683594 155.886719 C 350.621094 155.886719 349.5625 155.859375 348.503906 155.808594 C 347.445312 155.753906 346.390625 155.675781 345.335938 155.574219 C 344.28125 155.46875 343.230469 155.339844 342.179688 155.183594 C 341.132812 155.027344 340.089844 154.847656 339.050781 154.640625 C 338.011719 154.433594 336.976562 154.203125 335.949219 153.945312 C 334.921875 153.6875 333.898438 153.402344 332.886719 153.09375 C 331.871094 152.789062 330.867188 152.453125 329.867188 152.097656 C 328.871094 151.742188 327.882812 151.359375 326.902344 150.953125 C 325.925781 150.546875 324.957031 150.117188 323.996094 149.664062 C 323.039062 149.210938 322.09375 148.734375 321.160156 148.234375 C 320.222656 147.734375 319.304688 147.210938 318.394531 146.667969 C 317.484375 146.121094 316.589844 145.554688 315.707031 144.964844 C 314.828125 144.375 313.960938 143.765625 313.109375 143.132812 C 312.257812 142.5 311.425781 141.847656 310.605469 141.175781 C 309.785156 140.503906 308.984375 139.8125 308.199219 139.097656 C 307.414062 138.386719 306.644531 137.65625 305.898438 136.90625 C 305.148438 136.15625 304.417969 135.386719 303.707031 134.601562 C 302.992188 133.816406 302.300781 133.015625 301.628906 132.195312 C 300.957031 131.375 300.304688 130.539062 299.675781 129.6875 C 299.042969 128.835938 298.433594 127.96875 297.84375 127.085938 C 297.253906 126.203125 296.6875 125.308594 296.144531 124.398438 C 295.597656 123.488281 295.078125 122.566406 294.578125 121.632812 C 294.078125 120.695312 293.601562 119.75 293.148438 118.792969 C 292.695312 117.832031 292.265625 116.863281 291.859375 115.882812 C 291.457031 114.902344 291.074219 113.914062 290.71875 112.917969 C 290.359375 111.917969 290.027344 110.910156 289.71875 109.894531 C 289.414062 108.882812 289.128906 107.859375 288.871094 106.832031 C 288.613281 105.800781 288.382812 104.769531 288.175781 103.726562 C 287.96875 102.6875 287.789062 101.644531 287.632812 100.59375 C 287.476562 99.542969 287.347656 98.492188 287.242188 97.4375 C 287.140625 96.382812 287.0625 95.324219 287.011719 94.265625 C 286.957031 93.207031 286.933594 92.144531 286.933594 91.085938 C 286.933594 90.023438 286.957031 88.964844 287.011719 87.90625 C 287.0625 86.847656 287.140625 85.789062 287.242188 84.734375 C 287.347656 83.679688 287.476562 82.625 287.632812 81.578125 C 287.789062 80.527344 287.96875 79.484375 288.175781 78.445312 C 288.382812 77.402344 288.613281 76.371094 288.871094 75.339844 C 289.128906 74.3125 289.414062 73.289062 289.71875 72.273438 C 290.027344 71.261719 290.359375 70.253906 290.71875 69.253906 C 291.074219 68.257812 291.457031 67.265625 291.859375 66.289062 C 292.265625 65.308594 292.695312 64.339844 293.148438 63.378906 C 293.601562 62.421875 294.078125 61.472656 294.578125 60.539062 C 295.078125 59.605469 295.597656 58.679688 296.144531 57.773438 C 296.6875 56.863281 297.253906 55.964844 297.84375 55.085938 C 298.433594 54.203125 299.042969 53.335938 299.675781 52.484375 C 300.304688 51.632812 300.957031 50.796875 301.628906 49.976562 C 302.300781 49.15625 302.992188 48.355469 303.707031 47.570312 C 304.417969 46.78125 305.148438 46.015625 305.898438 45.265625 C 306.644531 44.515625 307.414062 43.785156 308.199219 43.070312 C 308.984375 42.359375 309.785156 41.667969 310.605469 40.996094 C 311.425781 40.320312 312.257812 39.667969 313.109375 39.039062 C 313.960938 38.40625 314.828125 37.796875 315.707031 37.207031 C 316.589844 36.617188 317.484375 36.050781 318.394531 35.503906 C 319.304688 34.960938 320.222656 34.4375 321.160156 33.9375 C 322.09375 33.4375 323.039062 32.960938 323.996094 32.507812 C 324.957031 32.054688 325.925781 31.625 326.902344 31.21875 C 327.882812 30.8125 328.871094 30.429688 329.867188 30.074219 C 330.867188 29.714844 331.871094 29.382812 332.886719 29.074219 C 333.898438 28.769531 334.921875 28.484375 335.949219 28.226562 C 336.976562 27.96875 338.011719 27.738281 339.050781 27.53125 C 340.089844 27.324219 341.132812 27.144531 342.179688 26.988281 C 343.230469 26.832031 344.28125 26.703125 345.335938 26.597656 C 346.390625 26.492188 347.445312 26.414062 348.503906 26.363281 C 349.5625 26.3125 350.621094 26.285156 351.683594 26.285156 C 352.742188 26.285156 353.800781 26.3125 354.859375 26.363281 C 355.917969 26.414062 356.972656 26.492188 358.027344 26.597656 C 359.082031 26.703125 360.132812 26.832031 361.183594 26.988281 C 362.230469 27.144531 363.273438 27.324219 364.3125 27.53125 C 365.351562 27.738281 366.386719 27.96875 367.414062 28.226562 C 368.441406 28.484375 369.464844 28.769531 370.476562 29.074219 C 371.492188 29.382812 372.496094 29.714844 373.496094 30.074219 C 374.492188 30.429688 375.480469 30.8125 376.460938 31.21875 C 377.441406 31.625 378.40625 32.054688 379.367188 32.507812 C 380.324219 32.960938 381.269531 33.4375 382.203125 33.9375 C 383.140625 34.4375 384.0625 34.960938 384.96875 35.503906 C 385.878906 36.050781 386.773438 36.617188 387.65625 37.207031 C 388.535156 37.796875 389.402344 38.40625 390.253906 39.039062 C 391.105469 39.667969 391.9375 40.320312 392.757812 40.996094 C 393.578125 41.667969 394.378906 42.359375 395.164062 43.070312 C 395.949219 43.785156 396.71875 44.515625 397.46875 45.265625 C 398.214844 46.015625 398.945312 46.78125 399.660156 47.570312 C 400.371094 48.355469 401.0625 49.15625 401.734375 49.976562 C 402.40625 50.796875 403.058594 51.632812 403.6875 52.484375 C 404.320312 53.335938 404.929688 54.203125 405.519531 55.085938 C 406.109375 55.964844 406.675781 56.863281 407.21875 57.773438 C 407.765625 58.679688 408.285156 59.605469 408.785156 60.539062 C 409.285156 61.472656 409.761719 62.421875 410.214844 63.378906 C 410.667969 64.339844 411.097656 65.308594 411.503906 66.289062 C 411.910156 67.265625 412.289062 68.257812 412.648438 69.253906 C 413.003906 70.253906 413.335938 71.261719 413.644531 72.273438 C 413.949219 73.289062 414.234375 74.3125 414.492188 75.339844 C 414.75 76.371094 414.980469 77.402344 415.1875 78.445312 C 415.394531 79.484375 415.574219 80.527344 415.730469 81.578125 C 415.886719 82.625 416.015625 83.679688 416.121094 84.734375 C 416.222656 85.789062 416.300781 86.847656 416.355469 87.90625 C 416.40625 88.964844 416.429688 90.023438 416.429688 91.085938 Z M 416.429688 91.085938 " fill-opacity="1" fill-rule="nonzero"/></svg>